<svg width="472" height="491" viewBox="0 0 472 491" fill="none" xmlns="http://www.w3.org/2000/svg">
<path d="M113.405 369.831V378.349L232.478 443.919L304.691 404.298V397.664L184.567 331.573L113.405 369.831Z" fill="#050815"/>
<path d="M111.691 369.655L232.076 436.721L306.912 393.787V385.497C306.912 385.497 128.172 361.919 118.3 360.683C108.42 359.447 111.691 369.655 111.691 369.655Z" fill="#131D3F"/>
<path d="M232.075 430.575V436.091L306.911 393.207V384.917L232.075 430.575Z" fill="#0E152A"/>
<path d="M110.379 363.718L233.261 431.987L310.552 387.405L187.687 320.146L110.379 363.718Z" fill="#212B4D"/>
<path d="M272.63 384.126C271.773 384.613 271.798 385.37 272.681 385.807L280.03 390.399C280.913 390.836 282.023 391.038 283.141 390.23L288.817 386.791C289.649 386.161 289.649 385.614 288.817 385L281.031 380.964C280.148 380.535 278.718 380.586 277.861 381.065L272.63 384.126ZM176.967 331.699C176.084 332.144 176.067 332.901 176.925 333.38L203.243 348.003C204.093 348.49 205.194 348.751 206.346 347.994L211.408 344.715C212.257 344.135 212.484 343.571 211.685 342.907L185.417 328.352C184.56 327.881 183.13 327.856 182.247 328.293L176.967 331.699ZM151.842 347.851C150.959 348.289 150.942 349.045 151.8 349.533L163.723 356.411C164.581 356.899 165.674 357.151 166.834 356.403L172.998 352.35C173.855 351.77 174.083 351.206 173.284 350.551L161.445 343.74C160.578 343.269 159.157 343.244 158.275 343.681L151.842 347.851ZM255.157 389.659C254.275 390.096 254.258 390.853 255.115 391.34L266.946 397.907C267.804 398.395 268.897 398.647 270.057 397.899L276.33 394.157C277.188 393.577 277.406 393.014 276.616 392.358L264.382 385.572C263.516 385.101 262.095 385.076 261.212 385.513L255.157 389.659ZM163.227 368.511C162.344 368.948 162.327 369.705 163.185 370.193L212.526 398.328C213.376 398.815 214.477 399.076 215.629 398.328L221.801 394.266C222.659 393.686 222.877 393.123 222.087 392.467L172.519 364.652C171.652 364.181 170.223 364.156 169.349 364.593L163.227 368.511ZM261.001 378.324C260.135 378.795 260.144 379.552 261.018 380.006L267.703 383.806C268.577 384.26 269.687 384.47 270.814 383.689L275.96 380.132C276.784 379.518 276.994 378.955 276.179 378.315L269.494 374.515C268.611 374.078 267.182 374.103 266.324 374.574L261.001 378.324ZM248.809 371.505C247.943 371.984 247.951 372.741 248.826 373.186L256.183 377.172C257.058 377.618 258.168 377.845 259.294 377.054L264.037 373.615C264.878 373.001 265.08 372.429 264.264 371.807L256.873 367.931C255.998 367.494 254.569 367.519 253.703 367.981L248.809 371.505ZM241.872 382.831C240.989 383.268 240.972 384.025 241.83 384.513L249.81 388.977C250.667 389.465 251.769 389.717 252.921 388.969L258.882 384.975C259.74 384.386 259.959 383.831 259.168 383.167L251.231 378.837C250.373 378.366 248.944 378.341 248.061 378.778L241.872 382.831ZM230.016 376.516C229.133 376.962 229.116 377.718 229.974 378.206L237.634 382.267C238.483 382.747 239.585 383.007 240.737 382.259L246.909 378.206C247.758 377.618 247.985 377.063 247.195 376.398L239.257 372.068C238.399 371.597 236.97 371.572 236.087 372.009L230.016 376.516ZM216.436 368.688C215.553 369.125 215.537 369.882 216.394 370.369L224.054 374.851C224.904 375.33 226.005 375.591 227.157 374.843L233.329 370.79C234.178 370.201 234.405 369.646 233.615 368.982L225.677 364.652C224.82 364.181 223.39 364.156 222.507 364.593L216.436 368.688ZM202.831 361.179C201.948 361.616 201.932 362.381 202.789 362.861L210.693 367.317C211.542 367.805 212.644 368.065 213.796 367.317L219.707 363.306C220.556 362.718 220.783 362.163 219.993 361.498L212.055 357.168C211.198 356.697 209.768 356.672 208.885 357.109L202.831 361.179ZM189.378 353.746C188.495 354.191 188.478 354.948 189.336 355.436L197.214 359.901C198.064 360.38 199.165 360.641 200.317 359.892L206.489 355.839C207.347 355.251 207.565 354.696 206.775 354.032L198.837 349.701C197.98 349.23 196.55 349.205 195.667 349.642L189.378 353.746ZM177.185 346.935C176.302 347.381 176.286 348.137 177.143 348.617L184.887 353.107C185.745 353.586 186.838 353.847 187.999 353.098L194.162 349.045C195.02 348.457 195.247 347.902 194.448 347.238L186.519 342.907C185.653 342.436 184.223 342.411 183.349 342.848L177.185 346.935ZM236.331 364.82C235.448 365.265 235.431 366.022 236.289 366.51L244.302 370.798C245.16 371.278 246.253 371.538 247.413 370.79L252.282 367.115C253.139 366.535 253.366 365.972 252.568 365.316L244.924 361.355C244.058 360.885 242.637 360.859 241.754 361.297L236.331 364.82ZM221.935 356.975C221.053 357.412 221.036 358.177 221.893 358.656L230.008 363.088C230.857 363.575 231.958 363.828 233.11 363.079L238.155 359.783C239.013 359.194 239.232 358.64 238.441 357.975L230.512 353.645C229.646 353.174 228.217 353.149 227.342 353.586L221.935 356.975ZM168.18 356.874C167.297 357.319 167.28 358.076 168.138 358.555L176.101 363.029C176.958 363.516 178.051 363.769 179.212 363.02L185.703 358.682C186.561 358.093 186.788 357.538 185.989 356.874L178.06 352.543C177.194 352.072 175.773 352.047 174.89 352.484L168.18 356.874ZM181.768 364.483C180.885 364.921 180.868 365.677 181.726 366.165L189.655 370.462C190.513 370.941 191.614 371.202 192.766 370.453L198.989 366.392C199.846 365.804 200.073 365.249 199.274 364.584L191.345 360.254C190.479 359.783 189.058 359.758 188.175 360.195L181.768 364.483ZM207.288 378.593C206.405 379.039 206.388 379.795 207.246 380.283L215.141 384.74C215.999 385.227 217.101 385.488 218.252 384.731L225.114 380.703C225.963 380.115 226.19 379.56 225.4 378.896L217.462 374.565C216.604 374.094 215.175 374.069 214.292 374.506L207.288 378.593ZM194.852 371.782C193.969 372.219 193.952 372.976 194.81 373.464L202.806 377.903C203.664 378.383 204.765 378.643 205.917 377.895L212.089 373.842C212.938 373.254 213.165 372.699 212.375 372.034L204.437 367.704C203.58 367.233 202.15 367.208 201.267 367.645L194.852 371.782ZM219.69 385.387C218.807 385.824 218.791 386.581 219.648 387.069L227.872 391.735C228.721 392.215 229.823 392.475 230.975 391.727L237.088 387.657C237.937 387.069 238.164 386.514 237.373 385.849L229.436 381.519C228.578 381.048 227.149 381.023 226.266 381.46L219.69 385.387ZM232.177 392.181C231.294 392.618 231.277 393.375 232.135 393.863L239.837 398.521C240.695 399 241.788 399.261 242.94 398.513L249.221 394.409C250.079 393.821 250.306 393.266 249.507 392.602L241.578 388.271C240.712 387.8 239.291 387.775 238.408 388.212L232.177 392.181ZM245.126 399.682C244.243 400.119 244.226 400.876 245.084 401.363L253.114 405.837C253.972 406.324 255.065 406.577 256.225 405.828L262.019 401.784C262.877 401.195 263.104 400.64 262.305 399.976L254.376 395.645C253.509 395.175 252.088 395.149 251.205 395.587L245.126 399.682ZM231.9 407.047C231.017 407.485 231 408.241 231.857 408.729L239.56 413.387C240.417 413.867 241.51 414.127 242.662 413.379L248.834 409.326C249.692 408.737 249.911 408.183 249.12 407.518L241.191 403.188C240.325 402.717 238.895 402.692 238.021 403.129L231.9 407.047ZM218.614 399.345C217.731 399.782 217.714 400.539 218.572 401.027L226.274 405.685C227.132 406.164 228.225 406.425 229.377 405.677L235.549 401.624C236.406 401.035 236.625 400.48 235.835 399.816L227.905 395.486C227.039 395.015 225.61 394.99 224.735 395.427L218.614 399.345ZM149.942 360.809C149.059 361.246 149.042 362.003 149.9 362.491L157.602 367.149C158.459 367.628 159.553 367.889 160.705 367.141L166.876 363.088C167.734 362.499 167.953 361.944 167.162 361.28L159.233 356.949C158.367 356.479 156.938 356.453 156.063 356.891L149.942 360.809ZM138.573 354.704C137.69 355.142 137.674 355.898 138.531 356.386L145.409 360.54C146.267 361.019 147.369 361.28 148.521 360.531L154.692 356.479C155.542 355.89 155.769 355.335 154.978 354.671L147.865 350.845C146.999 350.374 145.569 350.349 144.695 350.786L138.573 354.704ZM164.396 339.939C163.513 340.385 163.496 341.141 164.354 341.629L172.275 346.094C173.132 346.573 174.225 346.834 175.386 346.086L181.549 342.033C182.407 341.444 182.634 340.889 181.835 340.225L173.906 335.894C173.04 335.424 171.619 335.398 170.736 335.836L164.396 339.939ZM208.642 349.424C207.759 349.861 207.742 350.618 208.6 351.105L216.571 355.444C217.428 355.924 218.522 356.184 219.682 355.436L224.66 352.081C225.509 351.492 225.736 350.937 224.946 350.273L217.008 345.943C216.15 345.472 214.721 345.447 213.838 345.884L208.642 349.424Z" fill="#161B30"/>
<path d="M272.63 383.025C271.773 383.512 271.798 384.269 272.681 384.706L280.03 389.298C280.913 389.735 282.023 389.937 283.141 389.129L288.817 385.69C289.649 385.06 289.649 384.513 288.817 383.899L281.031 379.863C280.148 379.434 278.718 379.485 277.861 379.964L272.63 383.025ZM176.967 330.598C176.084 331.043 176.067 331.8 176.925 332.279L203.243 346.902C204.093 347.389 205.194 347.65 206.346 346.893L211.408 343.614C212.257 343.034 212.484 342.47 211.685 341.806L185.417 327.251C184.56 326.78 183.13 326.755 182.247 327.192L176.967 330.598ZM151.842 346.75C150.959 347.188 150.942 347.944 151.8 348.432L163.723 355.31C164.581 355.798 165.674 356.05 166.834 355.302L172.998 351.249C173.855 350.669 174.083 350.105 173.284 349.45L161.445 342.639C160.578 342.168 159.157 342.143 158.275 342.58L151.842 346.75ZM255.157 388.558C254.275 388.995 254.258 389.752 255.115 390.239L266.946 396.806C267.804 397.294 268.897 397.546 270.057 396.798L276.33 393.056C277.188 392.476 277.406 391.913 276.616 391.257L264.382 384.471C263.516 384 262.095 383.975 261.212 384.412L255.157 388.558ZM163.227 367.41C162.344 367.847 162.327 368.604 163.185 369.092L212.526 397.227C213.376 397.714 214.477 397.975 215.629 397.227L221.801 393.165C222.659 392.585 222.877 392.022 222.087 391.366L172.519 363.551C171.652 363.08 170.223 363.055 169.349 363.492L163.227 367.41ZM261.001 377.223C260.135 377.694 260.144 378.451 261.018 378.905L267.703 382.705C268.577 383.159 269.687 383.37 270.814 382.588L275.96 379.031C276.784 378.417 276.994 377.854 276.179 377.215L269.494 373.414C268.611 372.977 267.182 373.002 266.324 373.473L261.001 377.223ZM248.809 370.404C247.943 370.883 247.951 371.64 248.826 372.085L256.183 376.071C257.058 376.517 258.168 376.744 259.294 375.953L264.037 372.514C264.878 371.9 265.08 371.329 264.264 370.706L256.873 366.83C255.998 366.393 254.569 366.418 253.703 366.88L248.809 370.404ZM241.872 381.73C240.989 382.167 240.972 382.924 241.83 383.412L249.81 387.877C250.667 388.364 251.769 388.616 252.921 387.868L258.882 383.874C259.74 383.285 259.959 382.73 259.168 382.066L251.231 377.736C250.373 377.265 248.944 377.24 248.061 377.677L241.872 381.73ZM230.016 375.415C229.133 375.861 229.116 376.617 229.974 377.105L237.634 381.167C238.483 381.646 239.585 381.906 240.737 381.158L246.909 377.105C247.758 376.517 247.985 375.962 247.195 375.297L239.257 370.967C238.399 370.496 236.97 370.471 236.087 370.908L230.016 375.415ZM216.436 367.587C215.553 368.024 215.537 368.781 216.394 369.268L224.054 373.75C224.904 374.229 226.005 374.49 227.157 373.742L233.329 369.689C234.178 369.1 234.405 368.545 233.615 367.881L225.677 363.551C224.82 363.08 223.39 363.055 222.507 363.492L216.436 367.587ZM202.831 360.078C201.948 360.515 201.932 361.28 202.789 361.76L210.693 366.216C211.542 366.704 212.644 366.965 213.796 366.216L219.707 362.205C220.556 361.617 220.783 361.062 219.993 360.397L212.055 356.067C211.198 355.596 209.768 355.571 208.885 356.008L202.831 360.078ZM189.378 352.645C188.495 353.09 188.478 353.847 189.336 354.335L197.214 358.8C198.064 359.279 199.165 359.54 200.317 358.791L206.489 354.739C207.347 354.15 207.565 353.595 206.775 352.931L198.837 348.6C197.98 348.129 196.55 348.104 195.667 348.541L189.378 352.645ZM177.185 345.834C176.302 346.28 176.286 347.036 177.143 347.516L184.887 352.006C185.745 352.485 186.838 352.746 187.999 351.997L194.162 347.944C195.02 347.356 195.247 346.801 194.448 346.137L186.519 341.806C185.653 341.335 184.223 341.31 183.349 341.747L177.185 345.834ZM236.331 363.719C235.448 364.164 235.431 364.921 236.289 365.409L244.302 369.697C245.16 370.177 246.253 370.437 247.413 369.689L252.282 366.014C253.139 365.434 253.366 364.871 252.568 364.215L244.924 360.255C244.058 359.784 242.637 359.758 241.754 360.196L236.331 363.719ZM221.935 355.874C221.053 356.311 221.036 357.076 221.893 357.555L230.008 361.987C230.857 362.474 231.958 362.727 233.11 361.978L238.155 358.682C239.013 358.094 239.232 357.539 238.441 356.874L230.512 352.544C229.646 352.073 228.217 352.048 227.342 352.485L221.935 355.874ZM168.18 355.773C167.297 356.218 167.28 356.975 168.138 357.454L176.101 361.928C176.958 362.416 178.051 362.668 179.212 361.919L185.703 357.581C186.561 356.992 186.788 356.437 185.989 355.773L178.06 351.442C177.194 350.972 175.773 350.946 174.89 351.384L168.18 355.773ZM181.768 363.382C180.885 363.82 180.868 364.576 181.726 365.064L189.655 369.361C190.513 369.84 191.614 370.101 192.766 369.353L198.989 365.291C199.846 364.703 200.073 364.148 199.274 363.483L191.345 359.153C190.479 358.682 189.058 358.657 188.175 359.094L181.768 363.382ZM207.288 377.492C206.405 377.938 206.388 378.694 207.246 379.182L215.141 383.639C215.999 384.126 217.101 384.387 218.252 383.63L225.114 379.603C225.963 379.014 226.19 378.459 225.4 377.795L217.462 373.464C216.604 372.993 215.175 372.968 214.292 373.405L207.288 377.492ZM194.852 370.681C193.969 371.118 193.952 371.875 194.81 372.363L202.806 376.802C203.664 377.282 204.765 377.542 205.917 376.794L212.089 372.741C212.938 372.153 213.165 371.598 212.375 370.933L204.437 366.603C203.58 366.132 202.15 366.107 201.267 366.544L194.852 370.681ZM219.69 384.286C218.807 384.723 218.791 385.48 219.648 385.968L227.872 390.635C228.721 391.114 229.823 391.374 230.975 390.626L237.088 386.556C237.937 385.968 238.164 385.413 237.373 384.749L229.436 380.418C228.578 379.947 227.149 379.922 226.266 380.359L219.69 384.286ZM232.177 391.08C231.294 391.517 231.277 392.274 232.135 392.762L239.837 397.42C240.695 397.899 241.788 398.16 242.94 397.412L249.221 393.308C250.079 392.72 250.306 392.165 249.507 391.501L241.578 387.17C240.712 386.699 239.291 386.674 238.408 387.111L232.177 391.08ZM245.126 398.581C244.243 399.018 244.226 399.775 245.084 400.262L253.114 404.736C253.972 405.223 255.065 405.476 256.225 404.727L262.019 400.683C262.877 400.094 263.104 399.539 262.305 398.875L254.376 394.544C253.509 394.074 252.088 394.048 251.205 394.486L245.126 398.581ZM231.9 405.946C231.017 406.384 231 407.14 231.857 407.628L239.56 412.286C240.417 412.766 241.51 413.026 242.662 412.278L248.834 408.225C249.692 407.637 249.911 407.082 249.12 406.417L241.191 402.087C240.325 401.616 238.895 401.591 238.021 402.028L231.9 405.946ZM218.614 398.244C217.731 398.681 217.714 399.438 218.572 399.926L226.274 404.584C227.132 405.064 228.225 405.324 229.377 404.576L235.549 400.523C236.406 399.934 236.625 399.379 235.835 398.715L227.905 394.385C227.039 393.914 225.61 393.889 224.735 394.326L218.614 398.244ZM149.942 359.708C149.059 360.145 149.042 360.902 149.9 361.39L157.602 366.048C158.459 366.527 159.553 366.788 160.705 366.04L166.876 361.987C167.734 361.398 167.953 360.843 167.162 360.179L159.233 355.848C158.367 355.378 156.938 355.352 156.063 355.79L149.942 359.708ZM138.573 353.603C137.69 354.041 137.674 354.797 138.531 355.285L145.409 359.439C146.267 359.918 147.369 360.179 148.521 359.43L154.692 355.378C155.542 354.789 155.769 354.234 154.978 353.57L147.865 349.744C146.999 349.273 145.569 349.248 144.695 349.685L138.573 353.603ZM164.396 338.838C163.513 339.284 163.496 340.04 164.354 340.528L172.275 344.993C173.132 345.472 174.225 345.733 175.386 344.985L181.549 340.932C182.407 340.343 182.634 339.788 181.835 339.124L173.906 334.794C173.04 334.323 171.619 334.297 170.736 334.735L164.396 338.838ZM208.642 348.323C207.759 348.76 207.742 349.517 208.6 350.005L216.571 354.343C217.428 354.823 218.522 355.083 219.682 354.335L224.66 350.98C225.509 350.391 225.736 349.836 224.946 349.172L217.008 344.842C216.15 344.371 214.721 344.346 213.838 344.783L208.642 348.323Z" fill="#2D3A64"/>
<path d="M2.97917 319.939C0.313666 318.392 0.322075 315.886 3.00439 314.356L102.309 257.741C104.983 256.219 109.355 256.228 112.029 257.775L167.526 289.904C170.199 291.442 170.191 293.957 167.509 295.487L68.2041 352.102C65.5218 353.623 61.1493 353.615 58.4838 352.068L2.97917 319.939Z" fill="#050915"/>
<path d="M0.000976562 303.66C0.000976562 302.558 0.471854 301.776 1.11931 301.457C2.97759 300.246 6.70257 298.06 9.41011 296.613L105.091 245.263C105.679 244.943 106.402 244.951 106.983 245.288L166.078 276.13C166.75 276.458 168.323 277.232 168.81 278.947C169.349 280.856 169.416 283.32 166.717 284.682L66.6301 341.38C63.9394 342.911 60.6264 342.894 57.9441 341.355L0.984774 308.621C0.370952 308.276 0.000976562 307.637 0.000976562 306.947V303.66Z" fill="#0E152A"/>
<path d="M0.000976562 303.315C0.000976562 302.205 0.471854 301.415 1.11931 301.095C2.96078 299.876 6.66893 297.673 9.36807 296.21C9.36807 296.21 64.7382 337.378 62.0475 338.757C62.0475 338.757 62.0475 341.347 62.0475 342.516C60.5339 342.524 59.0204 342.137 57.6666 341.347L0.976365 308.327C0.370952 307.974 0.000976562 307.335 0.000976562 306.637V303.315Z" fill="#131D3F"/>
<path d="M1.98653 304.887C-0.67056 303.374 -0.662151 300.902 2.01176 299.397L100.921 243.707C103.587 242.202 107.942 242.219 110.599 243.741L165.877 275.34C168.534 276.862 168.526 279.334 165.86 280.831L66.9508 336.529C64.2853 338.025 59.9297 338.017 57.2726 336.495L1.98653 304.887Z" fill="#212B4D"/>
<path d="M11.5879 295.243L93.2178 249.913L154.583 285.371L74.6434 330.34L11.5879 295.243Z" fill="#7FD8EA"/>
<path d="M11.5879 295.243L93.2178 249.913L154.583 285.371L74.6434 330.34L11.5879 295.243Z" stroke="#1C243F" stroke-width="1.30815"/>
<path d="M41.0355 318.753C41.0355 320.435 39.3706 321.806 37.3105 321.806C35.2504 321.806 33.5771 320.435 33.5771 318.753C33.5771 317.072 35.2504 315.709 37.3105 315.709C39.3706 315.709 41.0355 317.072 41.0355 318.753Z" fill="#38487C"/>
<path d="M123.322 259.835L133.581 265.679C133.715 265.754 133.875 265.763 134.018 265.695L135.288 265.098C135.607 264.939 135.624 264.51 135.313 264.333L125.063 258.489C124.928 258.414 124.76 258.414 124.626 258.472L123.356 259.078C123.036 259.229 123.02 259.666 123.322 259.835Z" fill="#38487C"/>
<path d="M238.509 310.608C238.509 310.608 236.895 311.491 236.895 312.248C236.895 313.013 238.248 314.989 238.248 314.989L304.02 351.97L338.251 333.639L271.664 293.455" fill="#0E152A"/>
<path d="M238.509 308.397C238.509 308.397 236.895 309.28 236.895 310.037C236.895 310.802 238.509 311.542 238.509 311.542L304.28 348.523L338.512 330.192L271.664 291.244" fill="#212B4D"/>
<path d="M189.04 244.358L169.558 22.4235L178.033 17.9922L433.013 160.466V378.18L424.269 384.15" fill="#0E152A"/>
<path d="M169.406 239.363V18.9591L426.8 163.46L425.648 384.696L169.406 239.363Z" fill="#212B4D"/>
<path d="M178.632 228.769L176.866 35.3304L415.601 170.413V361.926L178.632 228.769Z" fill="#38487C"/>
<path d="M178.632 228.769L176.866 35.3304L415.601 170.413V361.926L178.632 228.769Z" stroke="#1C243F" stroke-width="1.30815" stroke-linecap="round" stroke-linejoin="round"/>
<path d="M399.77 454.473C397.558 454.768 396.028 457.475 395.465 461.873C392.042 468.642 385.114 467.843 385.114 467.843V474.402C385.114 474.402 391.656 474.898 396.028 471.997C400.401 469.096 402.225 464.631 402.78 461.873C403.335 459.123 402.637 454.473 399.77 454.473ZM325.01 473.931C325.01 483.357 339.153 491 356.592 491C374.04 491 388.183 483.357 388.183 473.931C388.183 464.496 374.04 456.609 356.592 456.609C339.153 456.609 325.01 464.496 325.01 474.225" fill="#050815"/>
<path d="M325.01 462.773C325.01 472.249 339.22 479.926 356.744 479.926C374.267 479.926 388.477 472.249 388.477 462.773V404.375C388.477 394.891 374.267 386.961 356.744 386.961C339.22 386.961 325.01 394.891 325.01 404.67V463.168" fill="#202949"/>
<path d="M362.477 479.926C374.821 478.875 388.476 472.535 388.476 463.059V404.67C388.148 406.89 360.938 419.755 360.636 423.017C366.942 423.253 381.758 421.058 381.758 429.988C381.758 440.247 381.758 452.8 381.758 463.059C381.758 471.501 374.737 474.629 362.477 479.926Z" fill="#19213A"/>
<path d="M356.744 386.961C374.257 386.961 388.477 395.145 388.477 405.225C388.477 415.304 374.257 423.488 356.744 423.488C339.23 423.488 325.01 415.304 325.01 405.225C325.01 395.145 339.23 386.961 356.744 386.961Z" fill="#2B3862"/>
<path d="M356.738 386.962C372.407 386.962 385.129 394.401 385.129 403.564C385.129 412.727 372.407 420.167 356.738 420.167C341.069 420.167 328.347 412.727 328.347 403.564C328.347 394.401 341.069 386.962 356.738 386.962Z" fill="#2B3862"/>
<g opacity="0.52">
<path d="M356.952 400.684C359.828 395.538 357.692 388.13 356.952 386.962C341.153 386.962 328.347 394.538 328.347 403.871C328.347 407.226 330.146 411.952 338.428 416.845C345.038 411.506 354.077 405.839 356.952 400.684Z" fill="#253054"/>
</g>
<path d="M356.551 420.167C369.887 420.167 381.802 413.272 381.802 410.758C381.802 408.243 370.274 401.348 356.551 401.348C342.82 401.348 331.695 408.084 331.695 410.758C331.695 413.423 343.207 420.167 356.551 420.167Z" fill="#7ED8E9"/>
<path d="M388.478 419.065C388.478 419.065 397.063 418.695 398.929 426.112C399.846 431.367 400.376 443.879 398.349 448.428C394.826 455.255 388.478 454.398 388.478 454.398V461.024C388.478 461.024 394.422 461.57 398.929 458.644C403.428 455.71 405.311 451.203 405.883 448.428C406.455 445.653 406.405 429.887 405.883 425.817C405.362 421.748 404.126 418.796 399.829 415.618C395.541 412.431 388.478 412.414 388.478 412.414V419.065Z" fill="#2B3863"/>
<path d="M398.854 427.373C399.753 432.594 399.661 444.795 397.685 449.31C394.246 456.088 388.478 454.759 388.478 454.759V457.399C388.478 457.399 391.74 458.694 396.138 455.785C400.535 452.876 400.468 451.127 401.023 448.369C401.578 445.619 402.083 429.819 401.713 427.373C401.343 424.926 397.037 420.015 398.854 427.373Z" fill="#2B3862"/>
<path d="M387.367 421.403C387.367 421.403 397.247 420.89 399.08 428.306C399.972 433.561 400.493 446.065 398.508 450.622C395.053 457.441 388.057 456.634 388.057 456.634V463.26C388.057 463.26 394.666 463.756 399.08 460.83C403.495 457.904 405.336 453.397 405.891 450.622C406.455 447.839 406.404 432.081 405.891 428.012C405.378 423.942 404.167 420.999 399.963 417.812C395.75 414.634 387.367 414.634 387.367 414.634V421.403Z" fill="#1A213B"/>
<path d="M206.101 286.073L334.869 357.63L335.516 82.5534L207.555 11.4005L206.101 286.073Z" fill="#7ED8E9" fill-opacity="0.5"/>
<g opacity="0.73">
<path d="M207.514 11.4595C207.514 11.4595 207.312 5.63239 207.514 3.53867C207.707 1.43654 209.515 -0.816944 212.315 0.29298C271.586 30.9757 330.513 67.6705 330.513 67.6705C330.513 67.6705 333.616 69.9155 334.423 72.1018C335.222 74.2964 335.55 83.0581 335.55 83.0581L207.514 11.4595Z" fill="#77CCDD"/>
</g>
<path d="M316.099 66.4512C316.116 67.3677 316.688 68.2254 317.57 68.3683C318.453 68.5112 319.185 67.6536 319.21 66.4512C319.235 65.2571 318.504 64.3995 317.57 64.5424C316.646 64.677 316.082 65.5346 316.099 66.4512ZM327.232 73.0939C327.249 74.0104 327.82 74.8681 328.703 75.011C329.586 75.154 330.318 74.2963 330.343 73.0939C330.368 71.8999 329.637 71.0422 328.703 71.1852C327.778 71.3197 327.215 72.1774 327.232 73.0939ZM321.665 69.7725C321.682 70.6891 322.254 71.5467 323.137 71.6897C324.02 71.8326 324.751 70.9749 324.777 69.7725C324.802 68.5785 324.07 67.7208 323.137 67.8638C322.212 67.9983 321.649 68.856 321.665 69.7725Z" fill="#7ED8E9"/>
<path d="M327.984 159.787C328.001 160.703 328.572 161.561 329.455 161.704C330.338 161.847 331.07 160.989 331.095 159.787C331.12 158.593 330.389 157.735 329.455 157.878C328.53 158.012 327.967 158.87 327.984 159.787ZM330.12 160.644C329.943 160.535 329.884 160.316 329.985 160.14C330.086 159.963 330.321 159.904 330.498 160.005L453.313 231.822C453.489 231.923 453.548 232.15 453.439 232.327C453.338 232.504 453.111 232.562 452.934 232.453L330.12 160.644ZM459.342 228.972C459.342 228.972 463.201 230.872 465.404 232.125C466.01 232.453 466.775 232.554 467.069 231.839C467.363 231.125 466.909 230.729 466.539 230.435C464.9 229.376 462.175 228.03 460.233 226.87C459.745 226.634 458.257 226.273 458.257 227.282C458.257 228.291 459.342 228.972 459.342 228.972ZM459.342 239.911C459.342 239.911 463.201 241.812 465.404 243.065C466.01 243.393 466.775 243.493 467.069 242.779C467.363 242.064 466.909 241.669 466.539 241.374C464.9 240.315 462.175 238.97 460.233 237.809C459.745 237.574 458.257 237.212 458.257 238.221C458.257 239.23 459.342 239.911 459.342 239.911ZM459.342 234.379C459.342 234.379 467.624 239.003 469.827 240.265C470.433 240.593 471.198 240.693 471.492 239.979C471.786 239.256 471.332 238.86 470.962 238.574C469.323 237.515 462.175 233.437 460.233 232.276C459.745 232.041 458.257 231.679 458.257 232.688C458.257 233.698 459.342 234.379 459.342 234.379Z" fill="white"/>
<path d="M114.566 125.539C114.389 125.43 114.33 125.211 114.431 125.034C114.532 124.858 114.759 124.799 114.936 124.9L210.473 180.665C210.658 180.775 210.717 180.993 210.608 181.17C210.507 181.346 210.28 181.405 210.103 181.304L114.566 125.539ZM103.029 125.917C103.029 125.917 110.252 129.567 112.455 130.82C113.06 131.156 113.826 131.257 114.12 130.534C114.423 129.819 113.96 129.424 113.59 129.129C111.95 128.07 105.863 124.976 103.92 123.815C103.433 123.58 101.944 123.218 101.944 124.227C101.944 125.236 103.029 125.917 103.029 125.917ZM103.029 121.486C103.029 121.486 106.889 123.386 109.092 124.639C109.697 124.967 110.462 125.068 110.756 124.353C111.051 123.639 110.597 123.243 110.227 122.949C108.587 121.89 105.863 120.544 103.92 119.384C103.433 119.148 101.944 118.787 101.944 119.796C101.944 120.805 103.029 121.486 103.029 121.486ZM103.029 117.063C103.029 117.063 106.889 118.964 109.092 120.216C109.697 120.544 110.462 120.645 110.756 119.93C111.051 119.216 110.597 118.821 110.227 118.526C108.587 117.467 105.863 116.121 103.92 114.961C103.433 114.726 101.944 114.364 101.944 115.373C101.944 116.382 103.029 117.063 103.029 117.063ZM209.952 181.927C209.969 182.843 210.54 183.701 211.423 183.844C212.306 183.987 213.038 183.129 213.063 181.927C213.088 180.733 212.357 179.875 211.423 180.018C210.498 180.152 209.935 181.01 209.952 181.927Z" fill="white"/>
<path d="M276.447 125.25C276.447 125.25 278.673 126.362 283.624 129.213C284.976 129.964 286.702 130.193 287.363 128.565C288.032 126.937 287.011 126.038 286.181 125.383C282.493 122.981 281.898 122.628 277.527 120.006C276.954 119.623 274.273 119.166 273.994 121.383C273.722 123.6 276.447 125.25 276.447 125.25ZM294.775 134.899C294.775 134.899 303.444 139.208 308.395 142.052C309.754 142.81 311.473 143.039 312.141 141.411C312.802 139.783 311.781 138.884 310.951 138.229C307.263 135.82 300.233 132.277 295.863 129.655C294.775 129.117 292.336 128.786 292.336 131.077C292.336 133.367 294.775 134.899 294.775 134.899Z" fill="#7ED8E9"/>
<path d="M228.699 84.7375C228.699 84.7375 230.924 85.8498 235.876 88.7004C237.227 89.4517 238.954 89.68 239.615 88.0522C240.283 86.4243 239.262 85.5257 238.432 84.8701C234.744 82.4688 234.149 82.1153 229.778 79.493C229.205 79.11 226.524 78.6533 226.245 80.8704C225.973 83.0876 228.699 84.7375 228.699 84.7375ZM204.42 71.5526C204.42 71.5526 213.089 75.8617 218.04 78.7049C219.399 79.4636 221.118 79.6919 221.786 78.0641C222.447 76.4362 221.426 75.5376 220.596 74.882C216.908 72.4734 209.878 68.9304 205.507 66.3081C204.42 65.7704 201.981 65.439 201.981 67.7297C201.981 70.0205 204.42 71.5526 204.42 71.5526ZM246.329 95.3223C246.329 95.3223 294.092 122.9 308.424 131.128C309.776 131.879 311.495 132.107 312.163 130.48C312.832 128.852 311.803 127.96 310.973 127.297C297.008 118.959 258.582 96.6334 246.828 89.5916C246.314 89.4001 244.154 89.2381 243.875 91.4552C243.604 93.6723 246.329 95.3223 246.329 95.3223Z" fill="#7ED8E9"/>
<path d="M260.286 90.0856C260.286 90.0856 294.261 109.797 308.593 118.024C309.945 118.783 311.664 119.011 312.332 117.383C313.001 115.756 311.972 114.857 311.142 114.201C297.177 105.856 273.171 91.7208 261.417 84.679C260.484 84.1119 258.112 84.0087 257.833 86.2185C257.561 88.4356 260.286 90.0856 260.286 90.0856Z" fill="#7ED8E9"/>
<path d="M228.699 58.9574C228.699 58.9574 230.925 60.0697 235.876 62.9203C237.228 63.6716 238.954 63.8999 239.615 62.2721C240.284 60.6442 239.263 59.7456 238.433 59.09C234.745 56.6888 234.15 56.3352 229.779 53.713C229.206 53.3299 226.525 52.8732 226.246 55.0904C225.974 57.3075 228.699 58.9574 228.699 58.9574ZM246.329 68.8056C246.329 68.8056 294.093 96.3834 308.425 104.611C309.776 105.362 311.495 105.591 312.164 103.963C312.832 102.335 311.804 101.444 310.974 100.781C297.009 92.4427 258.582 70.1167 246.829 63.075C246.315 62.8835 244.155 62.7214 243.876 64.9385C243.604 67.1557 246.329 68.8056 246.329 68.8056Z" fill="#7ED8E9"/>
<path d="M242.654 52.3282C242.654 52.3282 244.88 53.4405 249.831 56.2911C251.183 57.0424 252.909 57.2707 253.57 55.6429C254.239 54.015 253.218 53.1164 252.387 52.4608C248.7 50.0595 248.105 49.706 243.734 47.0837C243.161 46.7007 240.48 46.244 240.201 48.4611C239.929 50.6783 242.654 52.3282 242.654 52.3282ZM259.55 62.1764C259.55 62.1764 293.422 81.1803 307.746 89.408C309.098 90.1667 310.817 90.395 311.486 88.7672C312.154 87.1393 311.126 86.2407 310.303 85.5851C296.331 77.2396 271.803 63.4875 260.049 56.4457C259.535 56.2542 257.375 56.0922 257.096 58.3093C256.824 60.5264 259.55 62.1764 259.55 62.1764ZM203.721 29.7666C203.721 29.7666 217.7 37.7585 232.025 45.9862C233.384 46.7449 235.102 46.9732 235.771 45.3454C236.432 43.7175 235.411 42.8189 234.581 42.1633C220.609 33.8178 215.974 31.0777 204.22 24.0359C203.706 23.8444 201.546 23.6824 201.267 25.8995C200.995 28.1166 203.721 29.7666 203.721 29.7666Z" fill="#7ED8E9"/>
<g opacity="0.01">
<path d="M293.672 313.153C293.672 313.153 302.341 317.462 307.292 320.306C308.651 321.064 310.37 321.293 311.038 319.665C311.699 318.037 310.678 317.138 309.848 316.483C306.16 314.074 299.13 310.531 294.76 307.909C293.672 307.371 291.234 307.04 291.234 309.331C291.234 311.621 293.672 313.153 293.672 313.153ZM204.456 261.423C204.456 261.423 252.219 289.001 266.551 297.228C267.903 297.98 269.622 298.208 270.29 296.58C270.959 294.952 269.93 294.061 269.1 293.398C255.136 285.06 216.709 262.734 204.956 255.692C204.441 255.501 202.282 255.339 202.002 257.556C201.731 259.773 204.456 261.423 204.456 261.423ZM276.079 303.136C276.079 303.136 278.305 304.248 283.256 307.099C284.608 307.85 286.334 308.078 286.995 306.45C287.663 304.823 286.642 303.924 285.812 303.268C282.125 300.867 281.53 300.514 277.159 297.891C276.586 297.508 273.904 297.052 273.625 299.269C273.354 301.486 276.079 303.136 276.079 303.136Z" fill="#7ED8E9"/>
</g>
<g opacity="0.01">
<path d="M260.336 280.788C260.336 280.788 294.186 299.814 308.511 308.042C309.862 308.8 311.581 309.029 312.25 307.401C312.918 305.773 311.89 304.874 311.067 304.219C297.095 295.873 273.221 282.423 261.467 275.381C260.534 274.814 258.161 274.711 257.882 276.921C257.611 279.138 260.336 280.788 260.336 280.788Z" fill="#7ED8E9"/>
</g>
<g opacity="0.01">
<path d="M276.08 275.514C276.08 275.514 278.306 276.626 283.257 279.476C284.609 280.228 286.335 280.456 286.996 278.828C287.665 277.2 286.643 276.302 285.813 275.646C282.126 273.245 281.531 272.891 277.16 270.269C276.587 269.886 273.906 269.429 273.626 271.647C273.355 273.864 276.08 275.514 276.08 275.514ZM294.775 285.531C294.775 285.531 303.444 289.84 308.395 292.683C309.754 293.442 311.473 293.67 312.141 292.043C312.802 290.415 311.781 289.516 310.951 288.861C307.264 286.452 300.233 282.909 295.863 280.287C294.775 279.749 292.337 279.418 292.337 281.708C292.337 283.999 294.775 285.531 294.775 285.531Z" fill="#7ED8E9"/>
</g>
<g opacity="0.01">
<path d="M247.429 245.682C247.429 245.682 249.654 246.794 254.606 249.645C255.957 250.396 257.684 250.625 258.345 248.997C259.013 247.369 257.992 246.47 257.162 245.815C253.474 243.413 252.879 243.06 248.509 240.438C247.936 240.055 245.254 239.598 244.975 241.815C244.703 244.032 247.429 245.682 247.429 245.682ZM204.484 220.55C204.484 220.55 222.555 231.319 236.887 239.546C238.239 240.298 239.958 240.526 240.626 238.898C241.295 237.27 240.266 236.379 239.436 235.716C225.472 227.378 217.369 222.185 205.616 215.143C204.683 214.576 202.31 214.473 202.031 216.683C201.759 218.9 204.484 220.55 204.484 220.55ZM263.957 254.713C263.957 254.713 293.084 272.199 307.408 280.427C308.76 281.178 310.479 281.407 311.147 279.779C311.816 278.151 310.787 277.252 309.965 276.597C295.993 268.259 276.842 256.348 265.088 249.306C264.155 248.739 261.783 248.636 261.503 250.846C261.232 253.063 263.957 254.713 263.957 254.713Z" fill="#7ED8E9"/>
</g>
<g opacity="0.01">
<path d="M276.079 247.892C276.079 247.892 278.305 249.004 283.256 251.855C284.608 252.606 286.334 252.834 286.995 251.206C287.663 249.579 286.642 248.68 285.812 248.024C282.125 245.623 281.53 245.27 277.159 242.647C276.586 242.264 273.904 241.808 273.625 244.025C273.354 246.242 276.079 247.892 276.079 247.892ZM294.774 259.014C294.774 259.014 303.443 263.323 308.394 266.167C309.753 266.925 311.472 267.154 312.14 265.526C312.801 263.898 311.78 262.999 310.95 262.344C307.262 259.935 300.232 256.392 295.862 253.77C294.774 253.232 292.335 252.901 292.335 255.191C292.335 257.482 294.774 259.014 294.774 259.014ZM204.456 207.284C204.456 207.284 252.219 234.862 266.551 243.089C267.903 243.841 269.622 244.069 270.29 242.441C270.959 240.813 269.93 239.922 269.1 239.259C255.136 230.921 216.709 208.595 204.956 201.553C204.441 201.362 202.282 201.2 202.002 203.417C201.731 205.634 204.456 207.284 204.456 207.284Z" fill="#7ED8E9"/>
</g>
<g opacity="0.01">
<path d="M260.207 225.964C260.207 225.964 294.182 245.675 308.514 253.903C309.866 254.661 311.584 254.89 312.253 253.262C312.921 251.634 311.893 250.735 311.063 250.08C297.098 241.734 273.092 227.599 261.338 220.557C260.405 219.99 258.033 219.887 257.753 222.097C257.482 224.314 260.207 225.964 260.207 225.964Z" fill="#7ED8E9"/>
</g>
<g opacity="0.01">
<path d="M261.755 213.641C261.755 213.641 263.981 214.753 268.932 217.603C270.283 218.355 272.01 218.583 272.671 216.955C273.339 215.327 272.318 214.429 271.488 213.773C267.801 211.372 267.206 211.018 262.835 208.396C262.262 208.013 259.58 207.556 259.301 209.773C259.029 211.991 261.755 213.641 261.755 213.641ZM279.679 222.907C279.679 222.907 294.15 231.319 308.475 239.546C309.834 240.298 311.553 240.526 312.214 238.898C312.883 237.27 311.861 236.379 311.031 235.716C297.059 227.378 292.564 224.542 280.81 217.5C279.877 216.933 277.505 216.83 277.225 219.04C276.954 221.257 279.679 222.907 279.679 222.907Z" fill="#7ED8E9"/>
</g>
<g opacity="0.01">
<path d="M228.699 180.494C228.699 180.494 230.924 181.606 235.876 184.457C237.227 185.208 238.954 185.436 239.615 183.809C240.283 182.181 239.262 181.282 238.432 180.626C234.744 178.225 234.149 177.872 229.778 175.249C229.205 174.866 226.524 174.41 226.245 176.627C225.973 178.844 228.699 180.494 228.699 180.494ZM204.42 167.309C204.42 167.309 213.089 171.618 218.04 174.461C219.399 175.22 221.118 175.448 221.786 173.82C222.447 172.193 221.426 171.294 220.596 170.638C216.908 168.23 209.878 164.687 205.507 162.064C204.42 161.527 201.981 161.195 201.981 163.486C201.981 165.777 204.42 167.309 204.42 167.309ZM246.329 190.71C246.329 190.71 294.092 218.288 308.424 226.516C309.776 227.267 311.495 227.495 312.163 225.868C312.832 224.24 311.803 223.348 310.973 222.686C297.008 214.347 258.582 192.021 246.828 184.98C246.314 184.788 244.154 184.626 243.875 186.843C243.604 189.06 246.329 190.71 246.329 190.71Z" fill="#7ED8E9"/>
</g>
<g opacity="0.01">
<path d="M258.449 183.927C258.449 183.927 260.675 185.039 265.626 187.89C266.978 188.641 268.704 188.869 269.365 187.241C270.034 185.613 269.013 184.715 268.183 184.059C264.495 181.658 263.9 181.304 259.529 178.682C258.956 178.299 256.275 177.842 255.996 180.06C255.724 182.277 258.449 183.927 258.449 183.927ZM275.947 193.745C275.947 193.745 293.849 204.323 308.181 212.55C309.533 213.309 311.252 213.537 311.92 211.91C312.589 210.282 311.56 209.383 310.73 208.728C296.766 200.382 288.832 195.381 277.078 188.339C276.146 187.772 273.773 187.669 273.494 189.878C273.222 192.095 275.947 193.745 275.947 193.745Z" fill="#7ED8E9"/>
</g>
<g opacity="0.01">
<path d="M228.699 153.977C228.699 153.977 230.924 155.089 235.876 157.94C237.227 158.691 238.954 158.92 239.615 157.292C240.283 155.664 239.262 154.765 238.432 154.11C234.744 151.708 234.149 151.355 229.778 148.733C229.205 148.35 226.524 147.893 226.245 150.11C225.973 152.327 228.699 153.977 228.699 153.977ZM204.42 140.792C204.42 140.792 213.089 145.101 218.04 147.944C219.399 148.703 221.118 148.931 221.786 147.304C222.447 145.676 221.426 144.777 220.596 144.122C216.908 141.713 209.878 138.17 205.507 135.548C204.42 135.01 201.981 134.678 201.981 136.969C201.981 139.26 204.42 140.792 204.42 140.792ZM246.329 163.089C246.329 163.089 294.092 190.666 308.424 198.894C309.776 199.645 311.495 199.874 312.163 198.246C312.832 196.618 311.803 195.727 310.973 195.064C297.008 186.726 258.582 164.4 246.828 157.358C246.314 157.166 244.154 157.004 243.875 159.222C243.604 161.439 246.329 163.089 246.329 163.089Z" fill="#7ED8E9"/>
</g>
<g opacity="0.01">
<path d="M262.834 160.157C262.834 160.157 263.973 160.621 268.931 163.464C270.283 164.216 272.002 164.451 272.67 162.823C273.339 161.188 272.31 160.297 271.488 159.634C267.8 157.233 268.285 157.535 263.914 154.912C263.341 154.529 260.66 154.073 260.381 156.29C260.109 158.507 262.834 160.157 262.834 160.157ZM204.456 126.628C204.456 126.628 238.644 145.963 252.976 154.191C254.328 154.949 256.047 155.178 256.715 153.55C257.383 151.922 256.355 151.023 255.525 150.368C241.56 142.03 216.709 127.939 204.956 120.897C204.441 120.705 202.282 120.543 202.002 122.76C201.731 124.978 204.456 126.628 204.456 126.628ZM279.385 169.637C279.385 169.637 293.856 178.049 308.181 186.276C309.54 187.028 311.259 187.256 311.92 185.628C312.588 184 311.567 183.109 310.737 182.446C296.765 174.108 292.269 171.272 280.516 164.23C279.583 163.663 277.21 163.56 276.931 165.77C276.659 167.987 279.385 169.637 279.385 169.637Z" fill="#7ED8E9"/>
</g>
<g opacity="0.01">
<path d="M228.699 126.355C228.699 126.355 230.925 127.467 235.876 130.318C237.228 131.069 238.954 131.297 239.615 129.67C240.284 128.042 239.263 127.143 238.433 126.487C234.745 124.086 234.15 123.733 229.779 121.11C229.206 120.727 226.525 120.271 226.246 122.488C225.974 124.705 228.699 126.355 228.699 126.355ZM246.329 136.571C246.329 136.571 294.093 164.149 308.425 172.377C309.776 173.128 311.495 173.356 312.164 171.729C312.832 170.101 311.804 169.21 310.974 168.547C297.009 160.208 258.582 137.882 246.829 130.841C246.315 130.649 244.155 130.487 243.876 132.704C243.604 134.921 246.329 136.571 246.329 136.571Z" fill="#7ED8E9"/>
</g>
<g opacity="0.01">
<path d="M200.049 96.796C200.049 96.796 233.921 115.8 248.245 124.028C249.597 124.786 251.316 125.015 251.985 123.387C252.653 121.759 251.625 120.86 250.802 120.205C236.83 111.859 212.302 98.1071 200.548 91.0653C200.034 90.8738 197.874 90.7118 197.595 92.9289C197.323 95.146 200.049 96.796 200.049 96.796ZM258.449 129.67C258.449 129.67 260.675 130.782 265.626 133.633C266.978 134.384 268.704 134.612 269.365 132.984C270.034 131.357 269.012 130.458 268.182 129.802C264.495 127.401 263.9 127.048 259.529 124.425C258.956 124.042 256.275 123.586 255.995 125.803C255.724 128.02 258.449 129.67 258.449 129.67ZM276.366 139.643C276.366 139.643 303.443 155.045 308.394 157.888C309.753 158.64 311.472 158.875 312.14 157.248C312.802 155.62 311.78 154.721 310.95 154.066C307.27 151.657 281.824 137.021 277.453 134.399C276.366 133.861 273.927 133.53 273.927 135.82C273.927 138.111 276.366 139.643 276.366 139.643ZM200.049 96.796C200.049 96.796 233.921 115.8 248.245 124.028C249.597 124.786 251.316 125.015 251.985 123.387C252.653 121.759 251.625 120.86 250.802 120.205C236.83 111.859 212.302 98.1071 200.548 91.0653C200.034 90.8738 197.874 90.7118 197.595 92.9289C197.323 95.146 200.049 96.796 200.049 96.796Z" fill="#7ED8E9"/>
</g>
<g opacity="0.01">
<path d="M228.697 99.838C228.697 99.838 230.923 100.95 235.874 103.801C237.226 104.552 238.952 104.78 239.613 103.153C240.282 101.525 239.261 100.626 238.431 99.9706C234.743 97.5693 234.148 97.2157 229.777 94.5935C229.204 94.2105 226.523 93.7538 226.244 95.9709C225.972 98.188 228.697 99.838 228.697 99.838ZM205.521 86.6531C205.521 86.6531 214.189 90.9621 219.14 93.8053C220.499 94.564 222.218 94.7924 222.887 93.1645C223.548 91.5367 222.527 90.638 221.697 89.9825C218.009 87.5738 210.979 84.0308 206.608 81.4086C205.521 80.8709 203.082 80.5394 203.082 82.8302C203.082 85.121 205.521 86.6531 205.521 86.6531ZM246.328 108.95C246.328 108.95 294.091 136.527 308.423 144.755C309.774 145.506 311.493 145.735 312.162 144.107C312.83 142.479 311.802 141.588 310.972 140.925C297.007 132.587 258.581 110.261 246.827 103.219C246.313 103.027 244.153 102.865 243.874 105.082C243.602 107.3 246.328 108.95 246.328 108.95Z" fill="#7ED8E9"/>
</g>
<g opacity="0.01">
<path d="M277.182 114.201C277.182 114.201 279.407 115.313 284.359 118.164C285.71 118.915 287.437 119.144 288.098 117.516C288.766 115.888 287.745 114.989 286.915 114.334C283.227 111.933 282.632 111.579 278.261 108.957C277.688 108.574 275.007 108.117 274.728 110.334C274.456 112.551 277.182 114.201 277.182 114.201ZM294.775 124.219C294.775 124.219 303.443 128.528 308.394 131.371C309.753 132.13 311.472 132.358 312.141 130.73C312.802 129.102 311.781 128.204 310.951 127.548C307.263 125.14 300.233 121.597 295.862 118.974C294.775 118.437 292.336 118.105 292.336 120.396C292.336 122.687 294.775 124.219 294.775 124.219Z" fill="#7ED8E9"/>
</g>
<g opacity="0.01">
<path d="M247.43 83.2645C247.43 83.2645 249.656 84.3768 254.607 87.2273C255.958 87.9787 257.685 88.207 258.346 86.5792C259.014 84.9513 257.993 84.0527 257.163 83.3971C253.475 80.9958 252.88 80.6423 248.51 78.02C247.937 77.637 245.255 77.1803 244.976 79.3974C244.704 81.6146 247.43 83.2645 247.43 83.2645ZM265.06 92.2951C265.06 92.2951 294.187 109.782 308.511 118.009C309.863 118.761 311.582 118.989 312.25 117.361C312.919 115.733 311.89 114.835 311.068 114.179C297.096 105.841 277.945 93.9303 266.191 86.8885C265.258 86.3213 262.886 86.2182 262.606 88.428C262.335 90.6451 265.06 92.2951 265.06 92.2951ZM204.456 57.9186C204.456 57.9186 222.593 68.7022 236.925 76.9299C238.277 77.6812 239.996 77.9169 240.664 76.289C241.333 74.6538 240.304 73.7625 239.481 73.0996C225.509 64.7615 217.341 59.5538 205.587 52.512C204.654 51.9449 202.282 51.8417 202.002 54.0515C201.731 56.2686 204.456 57.9186 204.456 57.9186Z" fill="#7ED8E9"/>
</g>
<g opacity="0.01">
<path d="M294.803 96.5232C294.803 96.5232 303.472 100.832 308.423 103.675C309.782 104.434 311.501 104.663 312.169 103.035C312.83 101.407 311.809 100.508 310.979 99.8526C307.291 97.444 300.261 93.901 295.891 91.2787C294.803 90.741 292.364 90.4096 292.364 92.7003C292.364 94.9911 294.803 96.5232 294.803 96.5232ZM277.18 86.5793C277.18 86.5793 279.406 87.6916 284.357 90.5421C285.709 91.2935 287.435 91.5218 288.097 89.8939C288.765 88.2661 287.744 87.3675 286.914 86.7119C283.226 84.3106 282.631 83.9571 278.26 81.3348C277.687 80.9518 275.006 80.4951 274.727 82.7122C274.455 84.9294 277.18 86.5793 277.18 86.5793ZM205.558 44.8664C205.558 44.8664 253.321 72.4442 267.653 80.6719C269.004 81.4232 270.723 81.6515 271.392 80.0237C272.06 78.3958 271.032 77.5046 270.202 76.8416C256.237 68.5035 217.811 46.1775 206.057 39.1358C205.543 38.9443 203.383 38.7822 203.104 40.9993C202.832 43.2165 205.558 44.8664 205.558 44.8664Z" fill="#7ED8E9"/>
</g>
<g opacity="0.01">
<path d="M260.652 63.6493C260.652 63.6493 294.525 82.6533 308.849 90.8809C310.201 91.6396 311.92 91.868 312.588 90.2401C313.257 88.6123 312.228 87.7136 311.405 87.0581C297.434 78.7125 272.905 64.9605 261.152 57.9187C260.638 57.7272 258.478 57.5651 258.199 59.7823C257.927 61.9994 260.652 63.6493 260.652 63.6493ZM244.124 53.7054C244.124 53.7054 246.35 54.8177 251.301 57.6683C252.653 58.4196 254.379 58.6479 255.04 57.0201C255.709 55.3922 254.688 54.4936 253.857 53.838C250.17 51.4367 249.575 51.0832 245.204 48.4609C244.631 48.0779 241.95 47.6212 241.671 49.8383C241.399 52.0555 244.124 53.7054 244.124 53.7054ZM205.117 31.3574C205.117 31.3574 219.096 39.3494 233.421 47.577C234.78 48.3357 236.499 48.564 237.167 46.9362C237.829 45.3083 236.808 44.4097 235.977 43.7541C222.005 35.4086 217.37 32.6685 205.617 25.6267C205.102 25.4352 202.943 25.2732 202.664 27.4903C202.392 29.7074 205.117 31.3574 205.117 31.3574Z" fill="#7ED8E9"/>
</g>
</svg>
