<svg width="144" height="43" viewBox="0 0 144 43" fill="none" xmlns="http://www.w3.org/2000/svg">
<path d="M20.0802 42.1786C31.1701 42.1786 40.1603 32.7366 40.1603 21.0893C40.1603 9.44201 31.1701 0 20.0802 0C8.99019 0 0 9.44201 0 21.0893C0 32.7366 8.99019 42.1786 20.0802 42.1786Z" fill="white"/>
<path d="M16.5828 31.831L5.55554 15.5795H14.9953V16.6486H7.53076L16.5297 29.9104L25.1037 15.5795H34.5399L25.036 31.5498L24.173 30.9832L32.7032 16.6486H25.6662L16.5828 31.831Z" fill="#14161E"/>
<path d="M59.515 17.9579L54.925 7.45789H57.04L61.135 16.9529H59.92L64.06 7.45789H66.01L61.435 17.9579H59.515ZM67.1327 17.9579V7.45789H69.0827V16.3079H74.5727V17.9579H67.1327ZM74.6418 17.9579L79.3668 7.45789H81.2868L86.0268 17.9579H83.9868L79.9218 8.49289H80.7018L76.6518 17.9579H74.6418ZM76.8168 15.5279L77.3418 13.9979H83.0118L83.5368 15.5279H76.8168ZM87.3621 17.9579V7.45789H91.9521C93.0921 7.45789 94.0921 7.67789 94.9521 8.11789C95.8121 8.55789 96.4821 9.16789 96.9621 9.94789C97.4421 10.7279 97.6821 11.6479 97.6821 12.7079C97.6821 13.7579 97.4421 14.6779 96.9621 15.4679C96.4821 16.2479 95.8121 16.8579 94.9521 17.2979C94.0921 17.7379 93.0921 17.9579 91.9521 17.9579H87.3621ZM89.3121 16.3079H91.8621C92.6521 16.3079 93.3321 16.1579 93.9021 15.8579C94.4821 15.5579 94.9271 15.1379 95.2371 14.5979C95.5571 14.0579 95.7171 13.4279 95.7171 12.7079C95.7171 11.9779 95.5571 11.3479 95.2371 10.8179C94.9271 10.2779 94.4821 9.85789 93.9021 9.55789C93.3321 9.25789 92.6521 9.10789 91.8621 9.10789H89.3121V16.3079ZM99.7547 17.9579V7.45789H101.705V17.9579H99.7547ZM107.8 18.1079C106.98 18.1079 106.195 17.9929 105.445 17.7629C104.695 17.5229 104.1 17.2179 103.66 16.8479L104.335 15.3329C104.755 15.6629 105.275 15.9379 105.895 16.1579C106.515 16.3779 107.15 16.4879 107.8 16.4879C108.35 16.4879 108.795 16.4279 109.135 16.3079C109.475 16.1879 109.725 16.0279 109.885 15.8279C110.045 15.6179 110.125 15.3829 110.125 15.1229C110.125 14.8029 110.01 14.5479 109.78 14.3579C109.55 14.1579 109.25 14.0029 108.88 13.8929C108.52 13.7729 108.115 13.6629 107.665 13.5629C107.225 13.4629 106.78 13.3479 106.33 13.2179C105.89 13.0779 105.485 12.9029 105.115 12.6929C104.755 12.4729 104.46 12.1829 104.23 11.8229C104 11.4629 103.885 11.0029 103.885 10.4429C103.885 9.87289 104.035 9.35289 104.335 8.88289C104.645 8.40289 105.11 8.02288 105.73 7.74288C106.36 7.45289 107.155 7.30789 108.115 7.30789C108.745 7.30789 109.37 7.38789 109.99 7.54789C110.61 7.70789 111.15 7.93789 111.61 8.23789L110.995 9.75288C110.525 9.47289 110.04 9.26789 109.54 9.13789C109.04 8.99789 108.56 8.92788 108.1 8.92788C107.56 8.92788 107.12 8.99288 106.78 9.12289C106.45 9.25289 106.205 9.42289 106.045 9.63289C105.895 9.84289 105.82 10.0829 105.82 10.3529C105.82 10.6729 105.93 10.9329 106.15 11.1329C106.38 11.3229 106.675 11.4729 107.035 11.5829C107.405 11.6929 107.815 11.8029 108.265 11.9129C108.715 12.0129 109.16 12.1279 109.6 12.2579C110.05 12.3879 110.455 12.5579 110.815 12.7679C111.185 12.9779 111.48 13.2629 111.7 13.6229C111.93 13.9829 112.045 14.4379 112.045 14.9879C112.045 15.5479 111.89 16.0679 111.58 16.5479C111.28 17.0179 110.815 17.3979 110.185 17.6879C109.555 17.9679 108.76 18.1079 107.8 18.1079ZM113.978 17.9579V7.45789H115.928V16.3079H121.418V17.9579H113.978ZM121.487 17.9579L126.213 7.45789H128.133L132.873 17.9579H130.833L126.768 8.49289H127.548L123.498 17.9579H121.487ZM123.663 15.5279L124.188 13.9979H129.858L130.382 15.5279H123.663ZM136.756 17.9579L132.166 7.45789H134.281L138.376 16.9529H137.161L141.301 7.45789H143.251L138.676 17.9579H136.756ZM58.54 35.9579V27.1079H55.06V25.4579H63.97V27.1079H60.49V35.9579H58.54ZM70.207 36.1079C69.387 36.1079 68.632 35.9729 67.942 35.7029C67.252 35.4329 66.652 35.0579 66.142 34.5779C65.632 34.0879 65.237 33.5179 64.957 32.8679C64.677 32.2079 64.537 31.4879 64.537 30.7079C64.537 29.9279 64.677 29.2129 64.957 28.5629C65.237 27.9029 65.632 27.3329 66.142 26.8529C66.652 26.3629 67.252 25.9829 67.942 25.7129C68.632 25.4429 69.382 25.3079 70.192 25.3079C71.012 25.3079 71.762 25.4429 72.442 25.7129C73.132 25.9829 73.732 26.3629 74.242 26.8529C74.752 27.3329 75.147 27.9029 75.427 28.5629C75.707 29.2129 75.847 29.9279 75.847 30.7079C75.847 31.4879 75.707 32.2079 75.427 32.8679C75.147 33.5279 74.752 34.0979 74.242 34.5779C73.732 35.0579 73.132 35.4329 72.442 35.7029C71.762 35.9729 71.017 36.1079 70.207 36.1079ZM70.192 34.3979C70.722 34.3979 71.212 34.3079 71.662 34.1279C72.112 33.9479 72.502 33.6929 72.832 33.3629C73.162 33.0229 73.417 32.6329 73.597 32.1929C73.787 31.7429 73.882 31.2479 73.882 30.7079C73.882 30.1679 73.787 29.6779 73.597 29.2379C73.417 28.7879 73.162 28.3979 72.832 28.0679C72.502 27.7279 72.112 27.4679 71.662 27.2879C71.212 27.1079 70.722 27.0179 70.192 27.0179C69.662 27.0179 69.172 27.1079 68.722 27.2879C68.282 27.4679 67.892 27.7279 67.552 28.0679C67.222 28.3979 66.962 28.7879 66.772 29.2379C66.592 29.6779 66.502 30.1679 66.502 30.7079C66.502 31.2379 66.592 31.7279 66.772 32.1779C66.962 32.6279 67.222 33.0229 67.552 33.3629C67.882 33.6929 68.272 33.9479 68.722 34.1279C69.172 34.3079 69.662 34.3979 70.192 34.3979ZM81.1689 36.1079C80.3489 36.1079 79.5639 35.9929 78.8139 35.7629C78.0639 35.5229 77.4689 35.2179 77.0289 34.8479L77.7039 33.3329C78.1239 33.6629 78.6439 33.9379 79.2639 34.1579C79.8839 34.3779 80.5189 34.4879 81.1689 34.4879C81.7189 34.4879 82.1639 34.4279 82.5039 34.3079C82.8439 34.1879 83.0939 34.0279 83.2539 33.8279C83.4139 33.6179 83.4939 33.3829 83.4939 33.1229C83.4939 32.8029 83.3789 32.5479 83.1489 32.3579C82.9189 32.1579 82.6189 32.0029 82.2489 31.8929C81.8889 31.7729 81.4839 31.6629 81.0339 31.5629C80.5939 31.4629 80.1489 31.3479 79.6989 31.2179C79.2589 31.0779 78.8539 30.9029 78.4839 30.6929C78.1239 30.4729 77.8289 30.1829 77.5989 29.8229C77.3689 29.4629 77.2539 29.0029 77.2539 28.4429C77.2539 27.8729 77.4039 27.3529 77.7039 26.8829C78.0139 26.4029 78.4789 26.0229 79.0989 25.7429C79.7289 25.4529 80.5239 25.3079 81.4839 25.3079C82.1139 25.3079 82.7389 25.3879 83.3589 25.5479C83.9789 25.7079 84.5189 25.9379 84.9789 26.2379L84.3639 27.7529C83.8939 27.4729 83.4089 27.2679 82.9089 27.1379C82.4089 26.9979 81.9289 26.9279 81.4689 26.9279C80.9289 26.9279 80.4889 26.9929 80.1489 27.1229C79.8189 27.2529 79.5739 27.4229 79.4139 27.6329C79.2639 27.8429 79.1889 28.0829 79.1889 28.3529C79.1889 28.6729 79.2989 28.9329 79.5189 29.1329C79.7489 29.3229 80.0439 29.4729 80.4039 29.5829C80.7739 29.6929 81.1839 29.8029 81.6339 29.9129C82.0839 30.0129 82.5289 30.1279 82.9689 30.2579C83.4189 30.3879 83.8239 30.5579 84.1839 30.7679C84.5539 30.9779 84.8489 31.2629 85.0689 31.6229C85.2989 31.9829 85.4139 32.4379 85.4139 32.9879C85.4139 33.5479 85.2589 34.0679 84.9489 34.5479C84.6489 35.0179 84.1839 35.3979 83.5539 35.6879C82.9239 35.9679 82.1289 36.1079 81.1689 36.1079ZM94.7275 25.4579H96.6775V35.9579H94.7275V25.4579ZM89.2975 35.9579H87.3475V25.4579H89.2975V35.9579ZM94.8775 31.4579H89.1325V29.7929H94.8775V31.4579ZM104.351 36.1079C103.551 36.1079 102.806 35.9779 102.116 35.7179C101.436 35.4479 100.841 35.0729 100.331 34.5929C99.8311 34.1029 99.4411 33.5279 99.1611 32.8679C98.8811 32.2079 98.7411 31.4879 98.7411 30.7079C98.7411 29.9279 98.8811 29.2079 99.1611 28.5479C99.4411 27.8879 99.8361 27.3179 100.346 26.8379C100.856 26.3479 101.451 25.9729 102.131 25.7129C102.811 25.4429 103.556 25.3079 104.366 25.3079C105.226 25.3079 106.011 25.4579 106.721 25.7579C107.431 26.0479 108.031 26.4829 108.521 27.0629L107.261 28.2479C106.881 27.8379 106.456 27.5329 105.986 27.3329C105.516 27.1229 105.006 27.0179 104.456 27.0179C103.906 27.0179 103.401 27.1079 102.941 27.2879C102.491 27.4679 102.096 27.7229 101.756 28.0529C101.426 28.3829 101.166 28.7729 100.976 29.2229C100.796 29.6729 100.706 30.1679 100.706 30.7079C100.706 31.2479 100.796 31.7429 100.976 32.1929C101.166 32.6429 101.426 33.0329 101.756 33.3629C102.096 33.6929 102.491 33.9479 102.941 34.1279C103.401 34.3079 103.906 34.3979 104.456 34.3979C105.006 34.3979 105.516 34.2979 105.986 34.0979C106.456 33.8879 106.881 33.5729 107.261 33.1529L108.521 34.3529C108.031 34.9229 107.431 35.3579 106.721 35.6579C106.011 35.9579 105.221 36.1079 104.351 36.1079ZM117.769 25.4579H119.719V35.9579H117.769V25.4579ZM112.339 35.9579H110.389V25.4579H112.339V35.9579ZM117.919 31.4579H112.174V29.7929H117.919V31.4579ZM124.333 29.8229H129.553V31.4279H124.333V29.8229ZM124.483 34.3229H130.408V35.9579H122.533V25.4579H130.198V27.0929H124.483V34.3229ZM135.54 35.9579L130.95 25.4579H133.065L137.16 34.9529H135.945L140.085 25.4579H142.035L137.46 35.9579H135.54Z" fill="white"/>
</svg>
