<svg width="139" height="43" viewBox="0 0 139 43" fill="none" xmlns="http://www.w3.org/2000/svg">
<g clip-path="url(#clip0_311_21)">
<path d="M21.0395 43.023C32.6495 43.023 42.0614 33.3926 42.0614 21.513C42.0614 9.63339 32.6495 0.00305176 21.0395 0.00305176C9.4294 0.00305176 0.0175781 9.63339 0.0175781 21.513C0.0175781 33.3926 9.4294 43.023 21.0395 43.023Z" fill="white"/>
<path d="M50.1113 5.59991H54.2628C56.7904 5.59991 58.0544 6.60341 58.0547 8.61039C58.0547 9.92615 57.4772 10.7795 56.3223 11.1705C57.0636 11.3155 57.6385 11.6444 58.0468 12.1571C58.4552 12.6697 58.6589 13.3047 58.658 14.062C58.658 16.2235 57.3297 17.3043 54.6733 17.3043H50.1132L50.1113 5.59991ZM51.386 6.8207V10.6836H54.3768C56.0219 10.6836 56.8446 10.0425 56.8449 8.7602C56.8449 8.16948 56.6733 7.6984 56.3302 7.34694C55.987 6.99548 55.336 6.81991 54.3772 6.82022L51.386 6.8207ZM51.386 11.8043V16.0854H54.8999C56.5988 16.0854 57.4482 15.3719 57.4482 13.9449C57.4482 13.2871 57.2357 12.7656 56.8106 12.3804C56.3856 11.9951 55.7487 11.8032 54.8999 11.8048L51.386 11.8043Z" fill="white"/>
<path d="M64.1015 10.8174L61.2413 17.3043H59.9829L63.7419 8.94281H64.461L68.2367 17.3043H66.9783L64.1015 10.8174Z" fill="white"/>
<path d="M77.7654 17.3043H76.9156L76.867 15.4165C76.5527 16.0167 76.0834 16.517 75.5103 16.863C74.9183 17.2263 74.2393 17.4144 73.549 17.4063C72.3941 17.4063 71.4243 16.991 70.6398 16.1604C69.8552 15.3297 69.4629 14.3184 69.4629 13.1262C69.4629 11.9334 69.8552 10.9188 70.6398 10.0825C71.4243 9.24621 72.3941 8.82807 73.549 8.82807C74.2364 8.82237 74.9121 9.01034 75.502 9.37137C76.0786 9.71538 76.551 10.2158 76.867 10.8174L76.9161 8.94422H77.7658L77.7654 17.3043ZM71.5136 15.3478C72.0965 15.9388 72.802 16.2343 73.6301 16.2343C74.4583 16.2343 75.1665 15.9388 75.755 15.3478C76.3419 14.757 76.6353 14.0156 76.6353 13.1233C76.6353 12.2311 76.3419 11.4869 75.755 10.8908C75.4786 10.602 75.1478 10.3738 74.7825 10.22C74.4172 10.0662 74.0251 9.99003 73.6301 9.99623C72.8128 9.99623 72.1101 10.2944 71.522 10.8908C70.9338 11.4872 70.6404 12.2314 70.6416 13.1233C70.6401 14.0168 70.9309 14.7589 71.5141 15.3497L71.5136 15.3478Z" fill="white"/>
<path d="M89.6148 19.1627H88.4379V17.3043H81.3952V19.1627H80.2021V16.1522H81.3141L84.5501 8.94604H85.2692L88.5051 16.1522H89.6171L89.6148 19.1627ZM84.9078 10.8187L82.5378 16.1522H87.2921L84.9078 10.8187Z" fill="white"/>
<path d="M99.0776 17.3043H97.9021V10.9847L92.4584 17.3043H91.7397V8.9447H92.9328V15.2657L98.3747 8.9447H99.0776V17.3043Z" fill="white"/>
<path d="M105.811 8.82751C107.119 8.82751 108.192 9.34601 109.031 10.383L108.312 11.169C107.615 10.3887 106.781 9.99852 105.81 9.99852C104.982 9.99852 104.276 10.2967 103.694 10.8931C103.111 11.4895 102.819 12.2337 102.819 13.1256C102.819 14.0179 103.111 14.7593 103.694 15.35C104.276 15.9408 104.982 16.2363 105.81 16.2366C106.791 16.2366 107.625 15.852 108.312 15.0827L109.031 15.8687C108.192 16.8946 107.119 17.4074 105.811 17.4071C104.645 17.4071 103.657 16.989 102.846 16.1527C102.035 15.3164 101.629 14.3074 101.628 13.1256C101.628 11.9328 102.037 10.9183 102.854 10.082C103.672 9.24566 104.657 8.82751 105.811 8.82751Z" fill="white"/>
<path d="M114.686 10.8174L111.826 17.3043H110.567L114.326 8.94281H115.045L118.821 17.3043H117.563L114.686 10.8174Z" fill="white"/>
<path d="M128.35 17.3043H127.5L127.451 15.4146C127.137 16.0147 126.667 16.515 126.094 16.861C125.502 17.2244 124.823 17.4124 124.133 17.4043C122.978 17.4043 122.008 16.989 121.224 16.1584C120.439 15.3278 120.047 14.3164 120.047 13.1242C120.047 11.9314 120.439 10.9169 121.224 10.0806C122.008 9.24426 122.978 8.82611 124.133 8.82611C124.82 8.82042 125.496 9.00839 126.086 9.36942C126.662 9.71362 127.135 10.2142 127.45 10.8159L127.5 8.94274H128.349L128.35 17.3043ZM122.098 15.3477C122.681 15.9387 123.386 16.2343 124.215 16.2343C125.043 16.2343 125.751 15.9387 126.339 15.3477C126.926 14.757 127.22 14.0155 127.22 13.1233C127.22 12.231 126.926 11.4869 126.339 10.8908C126.063 10.602 125.732 10.3737 125.367 10.2199C125.002 10.0661 124.61 9.98998 124.215 9.99617C123.397 9.99617 122.695 10.2944 122.106 10.8908C121.518 11.4872 121.225 12.2313 121.226 13.1233C121.225 14.0168 121.515 14.7589 122.098 15.3496V15.3477Z" fill="white"/>
<path d="M131.39 8.9447H135.672C136.565 8.9447 137.227 9.13987 137.658 9.5302C138.088 9.92054 138.304 10.4444 138.305 11.1018C138.305 12.0383 137.902 12.6459 137.096 12.9247C138.152 13.1924 138.681 13.8613 138.681 14.9315C138.681 15.7232 138.441 16.317 137.962 16.7127C137.483 17.1084 136.73 17.3056 135.704 17.3043H131.389L131.39 8.9447ZM132.566 9.98154V12.5065H135.606C136.598 12.5065 137.093 12.0884 137.094 11.2521C137.094 10.4051 136.593 9.98138 135.59 9.98106L132.566 9.98154ZM132.566 16.2694H135.721C136.887 16.2694 137.469 15.7953 137.469 14.8471C137.469 13.9106 136.887 13.4424 135.721 13.4424L132.566 13.4258V16.2694Z" fill="white"/>
<path d="M54.8185 26.889V37.3745H53.5439V26.889H49.9971V25.6678H58.3486V26.8886L54.8185 26.889Z" fill="white"/>
<path d="M62.7782 28.8957C63.9439 28.8957 64.9355 29.3165 65.7528 30.1582C66.5701 30.9999 66.9788 32.0113 66.9788 33.1924C66.9788 34.3741 66.5701 35.3832 65.7528 36.2195C64.9355 37.0558 63.9439 37.4739 62.7782 37.4739C61.6121 37.4739 60.6237 37.0558 59.8129 36.2195C59.002 35.3832 58.5961 34.3741 58.5952 33.1924C58.5952 31.9996 59.0039 30.985 59.8212 30.1487C60.6385 29.3124 61.6242 28.8947 62.7782 28.8957ZM62.762 30.0662C61.9447 30.0662 61.2419 30.3644 60.6538 30.9608C60.0657 31.5572 59.7722 32.3014 59.7735 33.1933C59.7735 34.0856 60.0649 34.827 60.6478 35.4178C61.2307 36.0085 61.9362 36.304 62.7643 36.3043C63.5921 36.3043 64.3004 36.0088 64.8891 35.4178C65.4779 34.8267 65.7713 34.0853 65.7695 33.1933C65.7695 32.3014 65.476 31.5572 64.8891 30.9608C64.6125 30.6717 64.2813 30.4433 63.9156 30.2895C63.5498 30.1357 63.1573 30.0597 62.762 30.0662Z" fill="white"/>
<path d="M82.9303 39.2305H81.7534V37.3745H69.5117V29.0143H70.7048V36.2205H74.8887V29.0143H76.0818V36.2205H80.2657V29.0143H81.4588V36.2205H82.9298L82.9303 39.2305Z" fill="white"/>
<path d="M88.6012 28.8958C89.4837 28.8958 90.2405 29.1133 90.8716 29.5482C91.5026 29.9831 91.9717 30.5795 92.2787 31.3374C92.4168 31.6951 92.4967 32.0735 92.5155 32.4576C92.5427 32.8815 92.5127 33.2216 92.4256 33.4779H85.6609C85.6609 34.3587 85.9469 35.0583 86.519 35.5767C87.0911 36.095 87.8293 36.3599 88.7337 36.3713C89.7445 36.3792 90.7325 36.0643 91.5601 35.4705L92.1976 36.2063C91.1406 37.0536 89.9857 37.4773 88.7328 37.4773C87.4688 37.4659 86.4392 37.0645 85.6438 36.2731C84.8484 35.4817 84.4507 34.4559 84.4507 33.1958C84.4507 31.9809 84.8348 30.9608 85.603 30.1356C86.3712 29.3103 87.3706 28.8971 88.6012 28.8958ZM88.6012 30.0161C87.7947 30.0161 87.122 30.2726 86.5829 30.7855C86.0439 31.2985 85.7525 31.9229 85.7086 32.6587H91.3474C91.369 32.3688 91.3091 32.051 91.1676 31.7053C90.9694 31.2036 90.6274 30.7751 90.1868 30.476C89.7395 30.1694 89.211 30.0161 88.6012 30.0161Z" fill="white"/>
<path d="M95.106 29.0143H99.3881C100.281 29.0143 100.943 29.2095 101.374 29.5998C101.805 29.9902 102.02 30.5142 102.019 31.1719C102.019 32.1084 101.616 32.716 100.81 32.9948C101.867 33.2625 102.395 33.9314 102.396 35.0016C102.396 35.7934 102.156 36.3871 101.676 36.7828C101.197 37.1785 100.445 37.3764 99.421 37.3764H95.106V29.0143ZM96.2828 30.0512V32.5748H99.3227C100.314 32.5748 100.81 32.1566 100.81 31.3203C100.81 30.4733 100.309 30.0496 99.3065 30.0493L96.2828 30.0512ZM96.2828 36.339H99.4372C100.603 36.339 101.186 35.8649 101.186 34.9168C101.186 33.9803 100.603 33.512 99.4372 33.512L96.2805 33.4945L96.2828 36.339Z" fill="white"/>
<path d="M17.3769 32.4691L5.83252 15.8934H15.715V16.9838H7.90038L17.3213 30.5101L26.2975 15.8934H36.1762L26.2266 32.1822L25.3231 31.6043L34.2534 16.9838H26.8864L17.3769 32.4691Z" fill="#2D425E"/>
</g>
<defs>
<clipPath id="clip0_311_21">
<rect width="139" height="43" fill="white"/>
</clipPath>
</defs>
</svg>
