<svg width="50" height="59" viewBox="0 0 50 59" fill="none" xmlns="http://www.w3.org/2000/svg">
<path d="M38.0925 0.0295148C35.2196 0.334917 32.5849 1.5617 30.2038 3.70469C29.3756 4.45008 28.2834 5.77004 27.657 6.7846C27.3413 7.29188 14.6386 29.0324 14.0899 30.0003C11.6778 34.2553 10.7719 38.6085 11.6208 41.88C11.9676 43.2206 12.77 44.4837 13.7379 45.2135C15.6376 46.6473 18.0601 46.7198 20.7001 45.4309C21.989 44.7994 23.2002 43.9194 24.4477 42.7082C25.7366 41.4555 26.8443 40.0734 27.833 38.4895C28.5629 37.3145 34.6761 26.8014 34.7693 26.5581C34.8987 26.2216 34.9401 25.5435 34.8573 25.1812C34.6036 24.089 33.6305 23.3229 32.502 23.3229C31.5755 23.3229 30.8456 23.7681 30.3228 24.648C30.2089 24.8447 28.7647 27.3087 27.1187 30.1297C25.4726 32.9457 24.0025 35.4613 23.8421 35.7202C22.3772 38.1168 20.5965 39.9699 18.8055 40.9689C18.3241 41.2381 17.6874 41.4452 17.2578 41.4762C16.8903 41.5021 16.8592 41.4969 16.7039 41.3675C16.4917 41.1915 16.352 40.8758 16.2433 40.3478C16.1139 39.7163 16.1656 38.3342 16.3468 37.4542C16.6832 35.8185 17.3044 34.1776 18.1792 32.6144C18.8573 31.4031 31.5393 9.71439 31.8447 9.24334C33.3768 6.87259 35.8304 5.22135 38.315 4.89007C39.0087 4.7969 40.1009 4.85901 40.7324 5.01948C41.3794 5.19029 42.1766 5.57334 42.7149 5.98227C45.3186 7.94409 45.9449 12.1473 44.1798 15.7914C43.864 16.4488 24.8256 49.075 24.3959 49.6962C21.9941 53.1799 17.175 54.4636 13.2979 52.6467C12.7078 52.3723 9.32771 50.4468 8.63926 49.9912C7.57294 49.2873 6.36686 47.9155 5.77158 46.725C4.53962 44.2662 4.52927 41.3675 5.74053 38.9502C5.91652 38.6085 9.94887 31.693 20.2756 14.0314C22.0407 11.0136 23.5677 8.36855 23.6713 8.15632C23.8317 7.81986 23.8576 7.71116 23.8731 7.29188C23.899 6.73801 23.8421 6.46367 23.604 6.00815C23.2054 5.24206 22.3617 4.73996 21.4765 4.73996C20.8088 4.74513 20.286 4.96771 19.7942 5.46464C19.4992 5.75969 19.261 6.14274 17.7703 8.69983C16.8385 10.2941 12.8942 17.0492 9.0016 23.7111C5.10902 30.373 1.80653 36.0307 1.6616 36.2896C0.885149 37.6613 0.326107 39.3746 0.0931736 41.0776C-0.0310579 41.9576 -0.0310579 43.614 0.0931736 44.494C0.383047 46.6266 1.11808 48.5885 2.26722 50.3122C2.84179 51.1663 3.23519 51.6477 3.97541 52.3879C5.11419 53.5267 5.66288 53.9097 8.1941 55.3643C11.4034 57.207 11.9159 57.4451 13.5516 57.8748C14.8871 58.2268 15.4047 58.2837 17.0508 58.2837C18.6451 58.2837 19.1368 58.2319 20.4154 57.9213C22.2581 57.4658 24.3183 56.4461 25.778 55.2607C26.7719 54.448 27.8175 53.3041 28.5266 52.2326C28.8372 51.7667 47.8291 19.2906 48.2794 18.4572C49.0352 17.0544 49.6305 15.2375 49.9048 13.4879C50.0187 12.7374 50.0342 10.5064 49.9307 9.78686C49.5942 7.55069 48.854 5.70793 47.6531 4.1188C47.2804 3.62705 46.4315 2.74708 45.9604 2.35885C44.537 1.19418 42.8081 0.422914 40.9135 0.107159C40.3338 0.00880958 38.6877 -0.0326009 38.0925 0.0295148Z" fill="#919191"/>
</svg>
