<svg width="13" height="13" viewBox="0 0 13 13" fill="none" xmlns="http://www.w3.org/2000/svg">
<g clip-path="url(#clip0_340_118)">
<path fill-rule="evenodd" clip-rule="evenodd" d="M0 6.5C0 2.90921 2.90928 0 6.5 0C10.0907 0 13 2.90921 13 6.5C13 10.0908 10.0907 13 6.5 13C2.90928 13 0 10.0908 0 6.5ZM8.62561 9.47998L9.69231 4.45301C9.78667 4.01265 9.53247 3.83703 9.24154 3.94189L2.9748 6.35852C2.54496 6.52616 2.55283 6.76477 2.90141 6.87478L4.50544 7.37533L8.22721 5.03224C8.40022 4.91692 8.56007 4.98238 8.42904 5.0977L5.41753 7.81831L5.30222 9.47218C5.46997 9.47218 5.54336 9.39878 5.62981 9.31228L6.4135 8.55741L8.0385 9.75515C8.33468 9.92295 8.54696 9.8365 8.62561 9.47998Z" fill="#2DA4E1"/>
</g>
<defs>
<clipPath id="clip0_340_118">
<rect width="13" height="13" fill="white"/>
</clipPath>
</defs>
</svg>
