<svg width="96" height="96" viewBox="0 0 96 96" fill="none" xmlns="http://www.w3.org/2000/svg">
<path d="M48 0C21.492 0 0 21.492 0 48C0 74.508 21.492 96 48 96C74.508 96 96 74.508 96 48C96 21.492 74.508 0 48 0ZM73.444 63.868L65.972 63.972C65.972 63.972 64.36 64.288 62.252 62.832C59.456 60.912 56.82 55.916 54.764 56.564C52.68 57.228 52.744 61.724 52.744 61.724C52.744 61.724 52.76 62.516 52.284 63.032C51.768 63.588 50.756 63.532 50.756 63.532H47.408C47.408 63.532 40.024 64.144 33.516 57.36C26.428 49.964 20.164 35.368 20.164 35.368C20.164 35.368 19.796 34.448 20.188 33.976C20.632 33.456 21.828 33.44 21.828 33.44L29.828 33.4C29.828 33.4 30.58 33.532 31.124 33.932C31.568 34.26 31.82 34.876 31.82 34.876C31.82 34.876 33.112 38.152 34.828 41.12C38.172 46.904 39.724 48.172 40.86 47.552C42.516 46.648 42.02 39.376 42.02 39.376C42.02 39.376 42.052 36.736 41.188 35.56C40.516 34.644 39.252 34.372 38.7 34.304C38.248 34.244 38.984 33.196 39.944 32.724C41.384 32.02 43.928 31.98 46.932 32.008C49.272 32.032 49.948 32.176 50.86 32.4C53.62 33.068 52.684 35.644 52.684 41.824C52.684 43.804 52.328 46.588 53.752 47.504C54.368 47.9 55.868 47.564 59.608 41.188C61.388 38.164 62.72 34.612 62.72 34.612C62.72 34.612 63.012 33.98 63.464 33.708C63.928 33.428 64.552 33.516 64.552 33.516L72.972 33.464C72.972 33.464 75.5 33.16 75.912 34.308C76.344 35.508 74.968 38.312 71.528 42.9C65.88 50.436 65.252 49.736 69.944 54.096C74.424 58.26 75.348 60.284 75.504 60.54C77.356 63.624 73.444 63.868 73.444 63.868Z" fill="white"/>
</svg>
