<svg width="13" height="13" viewBox="0 0 13 13" fill="none" xmlns="http://www.w3.org/2000/svg">
<g clip-path="url(#clip0_340_122)">
<path fill-rule="evenodd" clip-rule="evenodd" d="M11.0529 1.88909C9.83705 0.67034 8.21784 0 6.49708 0C2.94531 0 0.0551368 2.89017 0.0551368 6.44193C0.0551368 7.57656 0.351113 8.68503 0.914063 9.66301L0 13L3.4154 12.1034C4.35559 12.617 5.41473 12.8868 6.4942 12.8868H6.49708C10.046 12.8868 13 9.99662 13 6.44486C13 4.72411 12.2688 3.10784 11.0529 1.88909ZM6.46988 11.8183C5.51834 11.8183 4.58683 11.5619 3.77571 11.0778L3.58367 10.9625L1.58309 11.4898L2.11619 9.52781L1.99008 9.32615C1.45984 8.47931 1.18182 7.50252 1.18182 6.49708C1.18182 3.56725 3.55501 1.18185 6.47275 1.18185C7.8858 1.18185 9.21283 1.73502 10.2103 2.74047C11.2077 3.74591 11.8211 5.07971 11.8182 6.5C11.8182 9.43275 9.38481 11.8183 6.46988 11.8183ZM8.0353 7.24003C8.18236 7.29083 8.96957 7.66903 9.12817 7.748L9.20254 7.78315C9.32019 7.83819 9.39965 7.87535 9.43096 7.93428C9.47131 7.99923 9.47131 8.31252 9.33866 8.67934C9.20601 9.04632 8.56879 9.37934 8.26025 9.42457C7.75271 9.49796 7.3548 9.46118 6.33983 9.03218C4.84402 8.39876 3.83342 6.98441 3.6364 6.7087C3.62188 6.68834 3.61177 6.67415 3.60622 6.667C3.52836 6.56256 2.95454 5.8175 2.95454 5.04691C2.95454 4.32712 3.31447 3.9497 3.48171 3.77434L3.51395 3.74022C3.66101 3.58497 3.83402 3.54543 3.94071 3.54543C4.0474 3.54543 4.1541 3.54543 4.24637 3.55112C4.25823 3.55178 4.2706 3.55178 4.28341 3.55178C4.37646 3.55151 4.49275 3.55125 4.6068 3.81917C4.64596 3.91161 4.70144 4.04399 4.76124 4.18654C4.90403 4.52707 5.07144 4.92631 5.09989 4.98198C5.14025 5.06107 5.16621 5.15139 5.1143 5.25586C4.97839 5.52191 4.83791 5.66583 4.73826 5.76788C4.6138 5.89523 4.55302 5.95741 4.64429 6.11108C5.26425 7.15249 5.88131 7.51378 6.82137 7.97382C6.97992 8.0528 7.07509 8.03877 7.16739 7.93428C7.2625 7.82708 7.56817 7.477 7.67488 7.319C7.78158 7.16094 7.88824 7.18635 8.0353 7.24003Z" fill="#4AC759"/>
</g>
<defs>
<clipPath id="clip0_340_122">
<rect width="13" height="13" fill="white"/>
</clipPath>
</defs>
</svg>
